<?xml version="1.0" standalone="no"?>
<!DOCTYPE svg PUBLIC "-//W3C//DTD SVG 20010904//EN"
 "http://www.w3.org/TR/2001/REC-SVG-20010904/DTD/svg10.dtd">
<svg version="1.0" xmlns="http://www.w3.org/2000/svg"
 width="300.000000pt" height="300.000000pt" viewBox="0 0 300.000000 300.000000"
 preserveAspectRatio="xMidYMid meet">
<metadata>
Created by potrace 1.16, written by Peter Selinger 2001-2019
</metadata>
<g transform="translate(0.000000,300.000000) scale(0.100000,-0.100000)"
fill="#000000" stroke="none">
<path d="M0 1500 l0 -1500 1500 0 1500 0 0 1500 0 1500 -1500 0 -1500 0 0
-1500z m1456 791 c21 -16 59 -49 84 -75 48 -50 63 -55 98 -30 42 29 18 104
-33 104 -12 0 -34 -9 -48 -20 -30 -24 -37 -25 -37 -5 0 19 57 55 88 55 13 0
37 -13 53 -29 48 -48 36 -111 -26 -137 -19 -7 -42 -11 -52 -7 -10 3 -50 37
-89 75 -46 43 -80 68 -95 68 -57 0 -81 -75 -34 -106 27 -17 42 -14 87 18 29
21 33 -1 5 -29 -54 -55 -147 -18 -147 58 0 38 48 89 83 89 13 0 42 -13 63 -29z
m-816 -811 c0 -18 -7 -20 -60 -20 l-60 0 0 -85 c0 -78 -2 -85 -20 -85 -18 0
-20 7 -20 85 l0 85 -55 0 c-48 0 -55 2 -55 20 0 19 7 20 135 20 128 0 135 -1
135 -20z m313 0 c14 -11 31 -36 37 -55 10 -30 9 -41 -7 -72 -24 -50 -53 -63
-143 -63 -88 0 -118 13 -144 61 -24 44 -16 80 24 120 27 28 33 29 118 29 74 0
94 -3 115 -20z m127 -49 c0 -90 13 -101 117 -101 98 0 113 14 113 105 0 58 2
65 20 65 18 0 20 -7 20 -71 0 -67 -2 -73 -34 -105 -33 -33 -36 -34 -116 -34
-129 0 -160 28 -160 145 0 58 2 65 20 65 18 0 20 -7 20 -69z m610 49 c0 -19
-7 -20 -109 -20 -106 0 -110 -1 -130 -26 -12 -15 -21 -32 -21 -39 0 -7 9 -24
21 -39 20 -25 24 -26 130 -26 102 0 109 -1 109 -20 0 -19 -7 -20 -104 -20
-122 0 -149 8 -176 52 -28 45 -21 94 20 131 29 26 34 27 145 27 108 0 115 -1
115 -20z m80 -20 l0 -40 115 0 115 0 0 40 c0 33 3 40 20 40 19 0 20 -7 20
-105 0 -98 -1 -105 -20 -105 -17 0 -20 7 -20 43 l0 42 -113 0 -112 0 -3 -43
c-3 -34 -7 -42 -23 -42 -18 0 -19 8 -19 105 0 98 1 105 20 105 17 0 20 -7 20
-40z m870 20 c0 -18 -7 -20 -60 -20 l-60 0 0 -85 c0 -78 -2 -85 -20 -85 -18 0
-20 7 -20 85 l0 85 -60 0 c-53 0 -60 2 -60 20 0 19 7 20 140 20 133 0 140 -1
140 -20z"/>
<path d="M740 1438 c-25 -28 -25 -48 1 -82 19 -24 26 -26 99 -26 73 0 80 2 99
26 12 15 21 32 21 39 0 7 -9 24 -21 39 -19 24 -26 26 -99 26 -69 0 -82 -3
-100 -22z"/>
</g>
</svg>
